<svg id="Livello_1" data-name="Livello 1" xmlns="http://www.w3.org/2000/svg" viewBox="0 0 509.89 142.92"><defs><style>.cls-1{fill:#c8c8c8;}.cls-2{fill:#2a455c;}.cls-3{fill:#1ad334;}</style></defs><title>logo_header</title><ellipse class="cls-1" cx="453.24" cy="137.43" rx="37.7" ry="5.48"/><path class="cls-2" d="M145.83,431.6h3.51a6,6,0,0,0,4.28-1.27,5.39,5.39,0,0,0,1.34-4.07V370.39a5.36,5.36,0,0,0-1.27-3.93c-.84-.84-2.24-1.26-4.21-1.26h-3.65V353H164.5a9.13,9.13,0,0,1,9.13,9.15l-.15,69.47h19.1a5.81,5.81,0,0,0,4.14-1.27,5.39,5.39,0,0,0,1.33-4.07v-4.91H214.9v22.46H145.83Z" transform="translate(-145.83 -329.08)"/><path class="cls-2" d="M227.32,436.65q-9-9.27-9.06-26.39t9-26.6q9-9.35,26.39-9.34t26.46,9.34Q289,393,289,410.26T280,436.65q-9,9.27-26.32,9.27T227.32,436.65Zm39.31-8.84q4.14-5.62,4.14-17.55,0-12.08-4.14-17.76t-13-5.68q-8.83,0-13,5.68t-4.14,17.76q0,11.92,4.14,17.55t13,5.61Q262.49,433.42,266.63,427.81Z" transform="translate(-145.83 -329.08)"/><path class="cls-2" d="M291.09,431.6h3.65c2,0,3.37-.45,4.21-1.34a5.86,5.86,0,0,0,1.26-4.14V369a7.61,7.61,0,0,0-1-4.5c-.7-.93-2.08-1.4-4.14-1.4h-3.93V350.88H309.4a9.2,9.2,0,0,1,9.2,9.2v43.3l16.85-14.74h-5.76V376.43h35v12.21h-7a8.77,8.77,0,0,0-3.37.49,12.89,12.89,0,0,0-2.81,1.9L339.8,401.27l15.73,27a7.5,7.5,0,0,0,2.38,2.73,8.11,8.11,0,0,0,3.79.64h5.9v12.21H346.68L327.45,411l-8.85,7.72v7.72a5.53,5.53,0,0,0,1.2,3.93c.79.85,2.13,1.27,4,1.27h3.65v12.21H291.09Z" transform="translate(-145.83 -329.08)"/><path class="cls-2" d="M366.26,431.6h3.65c2,0,3.37-.45,4.22-1.34a5.86,5.86,0,0,0,1.26-4.14V369a7.61,7.61,0,0,0-1.05-4.5c-.71-.93-2.09-1.4-4.14-1.4h-3.94V350.88h18.35a9.17,9.17,0,0,1,9.17,9.17v43.33l16.85-14.74h-5.76V376.43h34.95v12.21h-7a8.74,8.74,0,0,0-3.37.49,12.66,12.66,0,0,0-2.81,1.9L415,401.27l15.72,27a7.59,7.59,0,0,0,2.38,2.73,8.16,8.16,0,0,0,3.8.64h5.89v12.21H421.86L402.62,411l-8.84,7.72v7.72a5.58,5.58,0,0,0,1.19,3.93,5.3,5.3,0,0,0,4,1.27h3.65v12.21H366.26Z" transform="translate(-145.83 -329.08)"/><path class="cls-2" d="M464.77,469.36a33.93,33.93,0,0,1-12.36-7.3V451.53h15.87v4.91a11.49,11.49,0,0,0,5,2.74,28.7,28.7,0,0,0,7.23.77q12.92,0,12.92-15.16v-7.58a28.66,28.66,0,0,1-18.11,5.9q-12.65,0-19.87-6.39t-7.23-17.9v-25q0-5.19-5.33-5.19h-3.65V376.43h18.4a9.25,9.25,0,0,1,9.25,9.25v33.84q0,11.66,11.93,11.66,6.18,0,9.76-3.51t3.58-10.11V393.83q0-5.19-5.33-5.19h-3.65V376.43h18.61a9.18,9.18,0,0,1,9.18,9.18v55.95q0,13.76-8.07,22t-21.83,8.28A49.62,49.62,0,0,1,464.77,469.36Z" transform="translate(-145.83 -329.08)"/><path class="cls-3" d="M645.35,379.56l-3.12-.44,1.59-11.35a34,34,0,1,0-67.26-9.45L575,369.67l-3.11-.44a12,12,0,0,0-13.61,10.25L551,431.05a12,12,0,0,0,10.26,13.61L634.75,455a12,12,0,0,0,13.61-10.25l7.24-51.57A12,12,0,0,0,645.35,379.56Zm-54.84,39c-3.35-.47-5.65-5-6.18-11.22l8.17-2.95-7.82-5.64c1.51-9.62,6.31-16.82,10.89-16.18s7.33,9.25,5.94,19.18S595.19,419.21,590.51,418.56Zm23.28,3.27c-3.35-.47-5.65-5-6.18-11.22l8.17-2.94L608,402c1.51-9.62,6.32-16.82,10.89-16.18s7.34,9.25,5.94,19.19S618.47,422.49,613.79,421.83ZM630,377.4l-42.81-6,1.6-11.35a21.61,21.61,0,0,1,42.8,6Z" transform="translate(-145.83 -329.08)"/></svg>